<svg width="20" height="20" viewBox="0 0 20 20" fill="none" xmlns="http://www.w3.org/2000/svg">
<g id="globe">
<path id="Vector" d="M18.3332 9.99984C18.3332 14.6022 14.6022 18.3332 9.99984 18.3332M18.3332 9.99984C18.3332 5.39746 14.6022 1.6665 9.99984 1.6665M18.3332 9.99984C18.3332 8.15889 14.6022 6.6665 9.99984 6.6665C5.39746 6.6665 1.6665 8.15889 1.6665 9.99984M18.3332 9.99984C18.3332 11.8408 14.6022 13.3332 9.99984 13.3332C5.39746 13.3332 1.6665 11.8408 1.6665 9.99984M9.99984 18.3332C5.39746 18.3332 1.6665 14.6022 1.6665 9.99984M9.99984 18.3332C11.8408 18.3332 13.3332 14.6022 13.3332 9.99984C13.3332 5.39746 11.8408 1.6665 9.99984 1.6665M9.99984 18.3332C8.15889 18.3332 6.6665 14.6022 6.6665 9.99984C6.6665 5.39746 8.15889 1.6665 9.99984 1.6665M1.6665 9.99984C1.6665 5.39746 5.39746 1.6665 9.99984 1.6665" stroke="#F7F7F7" stroke-width="1.2" stroke-linecap="round" stroke-linejoin="round"/>
</g>
</svg>
