<svg width="20" height="20" viewBox="0 0 20 20" fill="none" xmlns="http://www.w3.org/2000/svg">
<g id="shopping-basket">
<path id="Vector" d="M5.00004 5.83317L7.50004 1.6665M12.5 1.6665L15 5.83317M7.26843 18.3332H12.7316C14.1334 18.3332 14.8342 18.3332 15.4087 18.0821C15.9153 17.8607 16.3508 17.5037 16.6672 17.0503C17.0261 16.5363 17.1635 15.849 17.4384 14.4745L18.0184 11.5745C18.412 9.60648 18.6088 8.62246 18.3424 7.85236C18.1088 7.17689 17.6416 6.60705 17.0251 6.24544C16.3222 5.83317 15.3187 5.83317 13.3116 5.83317H6.68843C4.68141 5.83317 3.6779 5.83317 2.975 6.24544C2.35848 6.60705 1.89132 7.17689 1.65765 7.85236C1.39123 8.62246 1.58804 9.60648 1.98164 11.5745L2.56165 14.4745C2.83654 15.849 2.97399 16.5363 3.33284 17.0503C3.64928 17.5037 4.08483 17.8607 4.5914 18.0821C5.16586 18.3332 5.86672 18.3332 7.26843 18.3332Z" stroke="#FAFAFA" stroke-width="1.5" stroke-linecap="round" stroke-linejoin="round"/>
</g>
</svg>
